<?xml version="1.0" encoding="iso-8859-1"?>
<!-- Generator: Adobe Illustrator 16.0.0, SVG Export Plug-In . SVG Version: 6.00 Build 0)  -->
<!DOCTYPE svg PUBLIC "-//W3C//DTD SVG 1.1//EN" "http://www.w3.org/Graphics/SVG/1.1/DTD/svg11.dtd">
<svg version="1.1" xmlns="http://www.w3.org/2000/svg" xmlns:xlink="http://www.w3.org/1999/xlink" x="0px" y="0px" width="520px"
	 height="520px" viewBox="0 0 520 520" style="enable-background:new 0 0 520 520;" xml:space="preserve">
<g id="_x34_86_x2C__Configuration_x2C__Equalizer_x2C__Options_x2C__Preference_x2C__Slider_x2C_">
	<g>
		<path style="fill:#4380A0;" d="M462.5,322.5c11.05,0,20,8.949,20,20c0,11.049-8.95,20-20,20c-11.04,0-20-8.951-20-20
			C442.5,331.449,451.46,322.5,462.5,322.5z"/>
		<path style="fill:#4380A0;" d="M62.5,42.5c13.81,0,25,11.19,25,25s-11.19,25-25,25c-13.8,0-25-11.19-25-25S48.7,42.5,62.5,42.5z"
			/>
		<path style="fill:#BDF9FF;" d="M95,372.5h52.61c-6.31,7.41-10.11,17.01-10.11,27.5s3.8,20.09,10.11,27.5H95
			c-7.59,0-14.47-3.08-19.44-8.051c-4.98-4.98-8.06-11.85-8.06-19.449C67.5,384.809,79.82,372.5,95,372.5z"/>
		<path style="fill:#BDF9FF;" d="M444.449,380.549c4.971,4.98,8.051,11.852,8.051,19.451c0,15.189-12.311,27.5-27.5,27.5H212.4
			c6.31-7.41,10.1-17.01,10.1-27.5s-3.79-20.09-10.1-27.5H425C432.59,372.5,439.47,375.58,444.449,380.549z"/>
		<path style="fill:#BDF9FF;" d="M95,242.5h212.609c-6.31,7.41-10.109,17.01-10.109,27.5s3.8,20.09,10.109,27.5H95
			c-15.18,0-27.5-12.311-27.5-27.5c0-7.601,3.08-14.471,8.06-19.451C80.53,245.58,87.41,242.5,95,242.5z"/>
		<path style="fill:#BDF9FF;" d="M425,242.5c15.189,0,27.5,12.31,27.5,27.5c0,7.6-3.08,14.469-8.051,19.449
			C439.47,294.42,432.59,297.5,425,297.5h-52.6c6.31-7.41,10.1-17.01,10.1-27.5s-3.79-20.09-10.1-27.5H425z"/>
		<path style="fill:#BDF9FF;" d="M444.449,120.549c4.971,4.98,8.051,11.85,8.051,19.45c0,15.19-12.311,27.5-27.5,27.5H212.4
			c6.31-7.41,10.1-17.01,10.1-27.5s-3.79-20.09-10.1-27.5H425C432.59,112.5,439.47,115.58,444.449,120.549z"/>
		<path style="fill:#BDF9FF;" d="M95,112.5h52.61c-6.31,7.41-10.11,17.01-10.11,27.5s3.8,20.09,10.11,27.5H95
			c-7.59,0-14.47-3.08-19.44-8.05c-4.98-4.98-8.06-11.85-8.06-19.45C67.5,124.81,79.82,112.5,95,112.5z"/>
		<path style="fill:#FFD54F;" d="M212.4,372.5c6.31,7.41,10.1,17.01,10.1,27.5s-3.79,20.09-10.1,27.5c-7.79,9.18-19.41,15-32.4,15
			c-12.98,0-24.6-5.82-32.39-15c-6.31-7.41-10.11-17.01-10.11-27.5s3.8-20.09,10.11-27.5c7.79-9.18,19.41-15,32.39-15
			C192.99,357.5,204.61,363.32,212.4,372.5z"/>
		<path style="fill:#68CA44;" d="M372.4,242.5c6.31,7.41,10.1,17.01,10.1,27.5s-3.79,20.09-10.1,27.5c-7.791,9.18-19.41,15-32.4,15
			c-12.98,0-24.6-5.82-32.391-15c-6.31-7.41-10.109-17.01-10.109-27.5s3.8-20.09,10.109-27.5c7.791-9.18,19.41-15,32.391-15
			C352.99,227.5,364.609,233.319,372.4,242.5z"/>
		<path style="fill:#FB2B3A;" d="M212.4,112.5c6.31,7.41,10.1,17.01,10.1,27.5s-3.79,20.09-10.1,27.5c-7.79,9.18-19.41,15-32.4,15
			c-12.98,0-24.6-5.82-32.39-15c-6.31-7.41-10.11-17.01-10.11-27.5s3.8-20.09,10.11-27.5c7.79-9.18,19.41-15,32.39-15
			C192.99,97.5,204.61,103.319,212.4,112.5z"/>
		<path d="M457.07,77.79c3.979,1.14,6.289,5.29,5.149,9.27s-5.29,6.29-9.271,5.15c-3.989-1.13-6.289-5.29-5.16-9.27
			C448.93,78.959,453.08,76.649,457.07,77.79z"/>
		<path d="M432.06,202.79c3.99,1.14,6.29,5.29,5.15,9.27c-1.13,3.98-5.29,6.29-9.271,5.15c-3.979-1.13-6.289-5.29-5.15-9.27
			C423.93,203.959,428.08,201.649,432.06,202.79z"/>
		<path d="M332.06,467.789c3.99,1.131,6.29,5.291,5.15,9.27c-1.13,3.98-5.29,6.291-9.271,5.15c-3.979-1.139-6.289-5.289-5.15-9.27
			C323.93,468.959,328.08,466.65,332.06,467.789z"/>
		<path d="M307.06,327.789c3.99,1.131,6.29,5.291,5.15,9.27c-1.13,3.98-5.29,6.291-9.271,5.15c-3.979-1.139-6.289-5.289-5.15-9.27
			C298.93,328.959,303.08,326.65,307.06,327.789z"/>
		<path d="M297.07,52.79c3.979,1.14,6.289,5.29,5.149,9.27s-5.29,6.29-9.271,5.15c-3.989-1.13-6.289-5.29-5.16-9.27
			C288.93,53.959,293.08,51.649,297.07,52.79z"/>
		<path d="M122.07,72.79c3.98,1.13,6.29,5.29,5.15,9.27s-5.29,6.29-9.27,5.15c-3.99-1.14-6.29-5.29-5.16-9.27
			C113.93,73.959,118.08,71.649,122.07,72.79z"/>
		<path d="M107.07,332.789c3.98,1.131,6.29,5.291,5.15,9.27c-1.14,3.98-5.29,6.291-9.27,5.15c-3.99-1.139-6.29-5.289-5.16-9.27
			C98.93,333.959,103.08,331.65,107.07,332.789z"/>
		<path d="M77.06,447.789c3.99,1.131,6.29,5.291,5.15,9.27c-1.13,3.98-5.29,6.291-9.27,5.15c-3.98-1.139-6.29-5.289-5.15-9.27
			C68.93,448.959,73.08,446.65,77.06,447.789z"/>
		<path d="M67.07,187.79c3.98,1.13,6.29,5.29,5.15,9.27s-5.29,6.29-9.27,5.15c-3.99-1.14-6.29-5.29-5.16-9.27
			C58.93,188.959,63.08,186.649,67.07,187.79z"/>
		<path d="M147.61,432.5H95c-8.68,0-16.84-3.379-22.976-9.514C65.882,416.844,62.5,408.68,62.5,400c0-17.922,14.58-32.5,32.5-32.5
			h52.61c2.761,0,5,2.238,5,5s-2.239,5-5,5H95c-12.407,0-22.5,10.094-22.5,22.5c0,6.01,2.342,11.66,6.595,15.914
			C83.342,420.16,88.991,422.5,95,422.5h52.61c2.761,0,5,2.238,5,5S150.371,432.5,147.61,432.5z"/>
		<path d="M425,432.5H212.4c-2.761,0-5-2.238-5-5s2.239-5,5-5H425c12.406,0,22.5-10.094,22.5-22.5c0-6.008-2.34-11.66-6.59-15.918
			c-4.25-4.242-9.903-6.582-15.91-6.582H212.4c-2.761,0-5-2.238-5-5s2.239-5,5-5H425c8.674,0,16.836,3.377,22.981,9.51
			c6.141,6.154,9.519,14.316,9.519,22.99C457.5,417.92,442.92,432.5,425,432.5z"/>
		<path d="M180,447.5c-13.966,0-27.161-6.111-36.203-16.766C136.514,422.182,132.5,411.264,132.5,400
			c0-11.266,4.014-22.182,11.303-30.742C152.839,358.609,166.034,352.5,180,352.5c13.972,0,27.171,6.109,36.212,16.764
			c7.277,8.547,11.288,19.465,11.288,30.736s-4.011,22.189-11.293,30.74C207.171,441.389,193.972,447.5,180,447.5z M180,362.5
			c-11.024,0-21.44,4.824-28.578,13.234c-5.756,6.76-8.922,15.375-8.922,24.266s3.167,17.506,8.917,24.258
			c7.144,8.418,17.56,13.242,28.583,13.242c11.03,0,21.45-4.824,28.587-13.236c5.75-6.75,8.913-15.365,8.913-24.264
			s-3.163-17.514-8.907-24.26C201.45,367.324,191.03,362.5,180,362.5z"/>
		<path d="M202.5,405c-2.761,0-5-2.238-5-5c0-9.65-7.851-17.5-17.5-17.5c-2.761,0-5-2.238-5-5s2.239-5,5-5
			c15.164,0,27.5,12.336,27.5,27.5C207.5,402.762,205.261,405,202.5,405z"/>
		<path d="M425,302.5h-52.6c-2.762,0-5-2.238-5-5s2.238-5,5-5H425c6.007,0,11.66-2.34,15.918-6.59
			c4.242-4.25,6.582-9.904,6.582-15.91c0-12.407-10.094-22.5-22.5-22.5h-52.6c-2.762,0-5-2.239-5-5s2.238-5,5-5H425
			c17.92,0,32.5,14.58,32.5,32.5c0,8.674-3.378,16.836-9.512,22.982C441.836,299.121,433.674,302.5,425,302.5z"/>
		<path d="M307.609,302.5H95c-17.92,0-32.5-14.58-32.5-32.5c0-8.682,3.382-16.845,9.524-22.986C78.16,240.878,86.32,237.5,95,237.5
			h212.609c2.762,0,5,2.239,5,5s-2.238,5-5,5H95c-6.009,0-11.658,2.339-15.905,6.585C74.842,258.338,72.5,263.99,72.5,270
			c0,12.406,10.093,22.5,22.5,22.5h212.609c2.762,0,5,2.238,5,5S310.371,302.5,307.609,302.5z"/>
		<path d="M340,317.5c-13.966,0-27.161-6.111-36.203-16.766C296.514,292.182,292.5,281.264,292.5,270
			c0-11.266,4.014-22.183,11.303-30.742C312.838,228.61,326.033,222.5,340,222.5c13.973,0,27.172,6.11,36.213,16.765
			C383.489,247.81,387.5,258.728,387.5,270c0,11.271-4.011,22.189-11.293,30.74C367.171,311.389,353.973,317.5,340,317.5z
			 M340,232.5c-11.023,0-21.44,4.824-28.578,13.235c-5.756,6.759-8.922,15.375-8.922,24.266s3.166,17.506,8.916,24.258
			c7.145,8.418,17.561,13.242,28.584,13.242c11.029,0,21.449-4.824,28.588-13.236c5.749-6.75,8.912-15.365,8.912-24.264
			s-3.163-17.514-8.906-24.259C361.45,237.324,351.03,232.5,340,232.5z"/>
		<path d="M362.5,275c-2.762,0-5-2.238-5-5c0-9.65-7.851-17.5-17.5-17.5c-2.762,0-5-2.239-5-5s2.238-5,5-5
			c15.164,0,27.5,12.336,27.5,27.5C367.5,272.762,365.262,275,362.5,275z"/>
		<path d="M147.61,172.5H95c-8.68,0-16.84-3.379-22.976-9.514C65.882,156.844,62.5,148.681,62.5,140c0-17.92,14.58-32.5,32.5-32.5
			h52.61c2.761,0,5,2.239,5,5s-2.239,5-5,5H95c-12.407,0-22.5,10.093-22.5,22.5c0,6.01,2.342,11.662,6.595,15.915
			c4.247,4.247,9.896,6.585,15.905,6.585h52.61c2.761,0,5,2.239,5,5S150.371,172.5,147.61,172.5z"/>
		<path d="M425,172.5H212.4c-2.761,0-5-2.239-5-5s2.239-5,5-5H425c12.406,0,22.5-10.093,22.5-22.5c0-6.007-2.34-11.661-6.59-15.918
			c-4.25-4.242-9.903-6.582-15.91-6.582H212.4c-2.761,0-5-2.239-5-5s2.239-5,5-5H425c8.674,0,16.836,3.377,22.981,9.511
			c6.141,6.152,9.519,14.314,9.519,22.989C457.5,157.92,442.92,172.5,425,172.5z"/>
		<path d="M180,187.5c-13.966,0-27.162-6.11-36.203-16.765c-7.283-8.553-11.297-19.47-11.297-30.735s4.014-22.182,11.303-30.742
			C152.838,98.61,166.034,92.5,180,92.5c13.973,0,27.171,6.11,36.212,16.765C223.489,117.81,227.5,128.728,227.5,140
			s-4.011,22.189-11.293,30.742C207.171,181.389,193.973,187.5,180,187.5z M180,102.5c-11.024,0-21.44,4.824-28.578,13.235
			c-5.756,6.759-8.922,15.375-8.922,24.265s3.167,17.506,8.917,24.258c7.143,8.417,17.56,13.242,28.583,13.242
			c11.03,0,21.45-4.824,28.587-13.235c5.75-6.752,8.913-15.367,8.913-24.265s-3.163-17.513-8.907-24.258
			C201.45,107.324,191.03,102.5,180,102.5z"/>
		<path d="M202.5,145c-2.761,0-5-2.239-5-5c0-9.649-7.851-17.5-17.5-17.5c-2.761,0-5-2.239-5-5s2.239-5,5-5
			c15.164,0,27.5,12.336,27.5,27.5C207.5,142.761,205.261,145,202.5,145z"/>
		<path d="M462.5,367.5c-13.785,0-25-11.215-25-25s11.215-25,25-25s25,11.215,25,25S476.285,367.5,462.5,367.5z M462.5,327.5
			c-8.271,0-15,6.729-15,15s6.729,15,15,15s15-6.729,15-15S470.771,327.5,462.5,327.5z"/>
		<path d="M62.5,97.5c-16.542,0-30-13.458-30-30s13.458-30,30-30s30,13.458,30,30S79.042,97.5,62.5,97.5z M62.5,47.5
			c-11.028,0-20,8.972-20,20s8.972,20,20,20s20-8.972,20-20S73.528,47.5,62.5,47.5z"/>
	</g>
</g>
<g id="Layer_1">
</g>
</svg>
