<?xml version="1.0" encoding="UTF-8" standalone="no"?> <svg xmlns="http://www.w3.org/2000/svg" viewBox="0 0 48 48"><title>Suport And Help vol.1</title><g id="Layer_10" data-name="Layer 10"><path d="M2.88086,43.89551a.99944.99944,0,0,0,1.22461,1.22363l9.70312-2.60107A21.1418,21.1418,0,1,0,2.84668,24,20.68074,20.68074,0,0,0,5.48242,34.14941ZM4.84668,24a19.20093,19.20093,0,1,1,9.60059,16.581,1.005,1.005,0,0,0-.502-.13476.99152.99152,0,0,0-.25879.03418L5.25879,42.73926,7.51953,34.27a1.00152,1.00152,0,0,0-.10058-.75928A18.7339,18.7339,0,0,1,4.84668,24Z"/><path d="M19.9873,21.36279a.99973.99973,0,0,0,1-1,2.99463,2.99463,0,1,1,2.99415,2.99463.99974.99974,0,0,0-1,1v2.72315a1,1,0,0,0,2,0V25.25684a4.99483,4.99483,0,1,0-5.99415-4.894A.99974.99974,0,0,0,19.9873,21.36279Z"/><path d="M24.54,30.42969a1.66594,1.66594,0,0,0-.18066-.1001,1.2615,1.2615,0,0,0-.17969-.0498.86031.86031,0,0,0-.38965,0,1.12949,1.12949,0,0,0-.19043.0498.97149.97149,0,0,0-.16992.1001.62583.62583,0,0,0-.16016.12011,1.034,1.034,0,0,0-.29.71,1.01044,1.01044,0,0,0,.29.70019,1.0344,1.0344,0,0,0,.16016.12988.93494.93494,0,0,0,.16992.08985,1.04739,1.04739,0,0,0,.19043.06006,1.18869,1.18869,0,0,0,.18945.02,1.32491,1.32491,0,0,0,.2002-.02,1.19524,1.19524,0,0,0,.17969-.06006,1.5533,1.5533,0,0,0,.18066-.08985,1.77209,1.77209,0,0,0,.14941-.12988,1.00615,1.00615,0,0,0,.29-.70019,1.02955,1.02955,0,0,0-.29-.71A.80581.80581,0,0,0,24.54,30.42969Z"/><path d="M37.89258,22.73291a14.062,14.062,0,0,1,.09375,1.62451,1,1,0,0,0,2,0,16.10475,16.10475,0,0,0-.10742-1.856.99988.99988,0,0,0-1.98633.23145Z"/><path d="M27.14648,10.71191a14.00992,14.00992,0,0,1,9.82715,8.40821,1.00091,1.00091,0,0,0,.92774.62646.98854.98854,0,0,0,.374-.07324,1,1,0,0,0,.55371-1.30127A16.0113,16.0113,0,0,0,27.5957,8.76318a.99992.99992,0,1,0-.44922,1.94873Z"/></g></svg>